<svg height="512pt" viewBox="-21 0 512 512" width="512pt" xmlns="http://www.w3.org/2000/svg"><path d="m443.199219 69.398438c-.398438 0-16.800781 0-43.199219 0v297.601562h-330.601562v-297.601562c-26.199219 0-42.796876 0-43.199219 0-11.800781 1.203124-21 11-21 23v311.402343c0 12.800781 10.402343 23 23.199219 23.199219h412.800781c12.800781 0 23-10.398438 23.199219-23.199219v-311.402343c-.199219-11.398438-7.796876-21.199219-21.199219-23zm0 0" fill="#6d6c6b"/><path d="m183.601562 427h102.199219v59.601562h-102.199219zm0 0" fill="#e9e9ea"/><path d="m158.800781 486.398438h151.398438c5.601562 0 10.199219 4.601562 10.199219 10.203124 0 5.597657-4.597657 10.199219-10.199219 10.199219h-151.398438c-5.601562 0-10.199219-4.601562-10.199219-10.199219 0-5.601562 4.597657-10.203124 10.199219-10.203124zm0 0" fill="#e9e9ea"/><path d="m5 366.800781v37c0 12.800781 10.398438 23 23.199219 23.199219h412.800781c12.800781 0 23-10.398438 23.199219-23.199219v-37zm0 0" fill="#e9e9ea"/><path d="m69.398438 90.398438h-41.199219c-1.199219 0-2 1-2.199219 2.203124v274.398438h43.199219v-276.601562zm0 0" fill="#acdef9"/><path d="m441 90.398438h-41.199219v276.601562h43.199219v-274.601562c.199219-1.199219-.800781-2-2-2zm0 0" fill="#acdef9"/><path d="m69.398438 90.398438h-41.199219c-1.199219 0-2 1-2.199219 2.203124v20.597657h43.199219v-22.800781zm0 0" fill="#55acd5"/><path d="m441 90.398438h-41.199219v22.601562h43.199219v-20.601562c.199219-1.199219-.800781-2-2-2zm0 0" fill="#55acd5"/><path d="m399.800781 366.800781v-336.601562c0-13.800781-11.199219-25.199219-25.199219-25.199219h-280.203124c-13.796876 0-25.199219 11.199219-25.199219 25.199219v336.601562zm0 0" fill="#e9e9ea"/><path d="m374.800781 5h-280.402343c-13.796876 0-25.199219 11.199219-25.199219 25.199219v25.601562h330.601562v-25.601562c0-14-11.199219-25.199219-25-25.199219zm0 0" fill="#6d6c6b"/><path d="m116.199219 208.398438h45.199219c5.601562 0 10.203124 4.601562 10.203124 10.203124 0 5.597657-4.601562 10.199219-10.203124 10.199219h-45.199219c-5.597657 0-10.199219-4.601562-10.199219-10.199219 0-5.601562 4.601562-10.203124 10.199219-10.203124zm0 0" fill="#55acd5"/><path d="m211 208.398438h45.199219c5.601562 0 10.199219 4.601562 10.199219 10.203124 0 5.597657-4.597657 10.199219-10.199219 10.199219h-45.199219c-5.601562 0-10.199219-4.601562-10.199219-10.199219-.199219-5.601562 4.398438-10.203124 10.199219-10.203124zm0 0" fill="#55acd5"/><path d="m305.800781 208.398438h45.199219c5.601562 0 10.199219 4.601562 10.199219 10.203124 0 5.597657-4.597657 10.199219-10.199219 10.199219h-45.199219c-5.601562 0-10.199219-4.601562-10.199219-10.199219-.203124-5.601562 4.398438-10.203124 10.199219-10.203124zm0 0" fill="#55acd5"/><path d="m69.398438 56h330.601562v118h-330.601562zm0 0" fill="#ffcd29"/><path d="m283.800781 99.601562c-45 8-79.402343 31.796876-86 74.398438h202v-118h-63.601562c-4.398438 17.199219-17.199219 37.398438-52.398438 43.601562zm0 0" fill="#fdad2c"/><path d="m441 432h-412.800781c-15.597657 0-28-12.601562-28.199219-28.199219v-311.402343c0-14.597657 11.199219-26.597657 25.601562-28 .398438 0 .796876 0 43.597657-.199219 2.800781 0 5 2.199219 5 5v292.601562h320.601562v-292.402343c0-2.796876 2.199219-5 5-5h43.597657.203124c15.199219 2 25.398438 13.402343 25.398438 28v311.402343c.199219 15.597657-12.398438 28.199219-28 28.199219zm-414.601562-357.601562c-9.199219 1-16.398438 8.800781-16.398438 18v311.402343c0 10 8.199219 18.199219 18.199219 18.199219h412.800781c10 0 18.199219-8.199219 18.199219-18.199219v-311.402343c0-9.597657-6.199219-16.597657-16.398438-18-1.601562 0-9.800781 0-37.800781 0v292.601562c0 2.800781-2.199219 5-5 5h-330.601562c-2.796876 0-5-2.199219-5-5v-292.601562c-29 0-36.796876 0-38 0zm0 0" fill="#231f20"/><path d="m366.199219 454h-3.597657v-3.601562c0-2.796876-2.203124-5-5-5-2.800781 0-5 2.203124-5 5v3.601562h-3.601562c-2.800781 0-5 2.199219-5 5s2.199219 5 5 5h3.601562v3.601562c0 2.796876 2.199219 5 5 5 2.796876 0 5-2.203124 5-5v-3.601562h3.597657c2.800781 0 5-2.199219 5-5s-2.199219-5-5-5zm0 0" fill="#55acd5"/><path d="m438.800781 34c0-.398438-.199219-.601562-.199219-1-.203124-.199219-.203124-.601562-.402343-.800781s-.398438-.597657-.597657-.800781c-2-1.796876-5-1.796876-7 0-.203124.203124-.402343.402343-.601562.800781-.398438.601562-.601562 1.199219-.800781 1.800781s-.199219 1.398438 0 2c0 .398438.199219.601562.199219 1 .203124.398438.203124.601562.402343.800781s.398438.597657.597657.800781c2 2 5 2 7 0 .203124-.203124.402343-.402343.601562-.800781.199219-.199219.398438-.601562.398438-.800781.203124-.199219.203124-.601562.203124-1 .199219-.800781.199219-1.398438.199219-2zm0 0" fill="#6dcc6d"/><path d="m396.800781 494c0-.398438-.199219-.601562-.199219-1-.203124-.199219-.203124-.601562-.402343-.800781s-.398438-.597657-.597657-.800781c-2-1.796876-5-1.796876-7 0-.203124.203124-.402343.402343-.601562.800781-.398438.601562-.601562 1.199219-.800781 1.800781s-.199219 1.398438 0 2c0 .398438.199219.601562.199219 1 .203124.398438.203124.601562.402343.800781s.398438.597657.597657.800781c2 2 5 2 7 0 .203124-.203124.402343-.402343.601562-.800781.199219-.199219.398438-.601562.398438-.800781.203124-.199219.203124-.601562.203124-1 .199219-.800781.199219-1.398438.199219-2zm0 0" fill="#ffcd29"/><path d="m46.398438 30.199219c-6.597657-1.199219-11.796876-6.398438-13.199219-13.199219 0-.199219-.199219-.199219-.398438-.199219s-.199219.199219-.199219.199219c-1.203124 6.601562-6.402343 11.800781-13.203124 13.199219-.199219 0-.199219.199219-.199219.402343 0 .199219.199219.199219.199219.199219 6.601562 1.199219 11.800781 6.398438 13.203124 13.199219 0 .199219.199219.199219.398438.199219s.199219-.199219.199219-.199219c1.199219-6.601562 6.402343-11.800781 13.199219-13.199219.203124 0 .203124-.199219.203124-.402343 0-.199219 0-.199219-.203124-.199219zm0 0" fill="#ea4647"/><g fill="#231f20"><path d="m285.601562 491.398438h-102.203124c-2.796876 0-5-2.199219-5-5v-59.597657c0-2.800781 2.203124-5 5-5h102.203124c2.796876 0 5 2.199219 5 5v59.597657c0 2.800781-2.203124 5-5 5zm-97-10h92v-49.398438h-92zm0 0"/><path d="m234.601562 411.199219c-8.402343 0-15.203124-6.800781-15.203124-15.199219s6.800781-15.199219 15.203124-15.199219c8.398438 0 15.199219 6.800781 15.199219 15.199219 0 8.199219-6.800781 15.199219-15.199219 15.199219zm0-20.597657c-3 0-5.203124 2.398438-5.203124 5.199219s2.402343 5.199219 5.203124 5.199219c3 0 5.199219-2.398438 5.199219-5.199219s-2.199219-5.199219-5.199219-5.199219zm0 0"/><path d="m310.398438 512h-151.597657c-8.402343 0-15.199219-6.800781-15.199219-15.199219 0-8.402343 6.796876-15.199219 15.199219-15.199219h151.398438c8.402343 0 15.199219 6.796876 15.199219 15.199219.203124 8.398438-6.597657 15.199219-15 15.199219zm-151.597657-20.601562c-3 0-5.199219 2.402343-5.199219 5.203124 0 3 2.398438 5.199219 5.199219 5.199219h151.398438c3 0 5.199219-2.402343 5.199219-5.199219 0-3-2.398438-5.203124-5.199219-5.203124zm0 0"/><path d="m100 35.398438c-2.800781 0-5-2.199219-5-5 0-.398438 0-.597657 0-1 0-.398438.199219-.597657.199219-1 .199219-.398438.199219-.597657.402343-.796876.199219-.203124.398438-.601562.597657-.800781 1.199219-1.199219 2.800781-1.601562 4.601562-1.402343.597657.203124 1.199219.402343 1.800781.800781.199219.199219.597657.402343.796876.601562.203124.199219.402343.398438.601562.800781.199219.199219.398438.597657.398438.796876.203124.402343.203124.601562.203124 1 0 .402343.199219.601562 0 1 0 1.402343-.601562 2.601562-1.402343 3.601562-.199219.199219-.398438.398438-.800781.601562-.199219.199219-.597657.398438-.796876.398438-.203124.199219-.601562.199219-1 .199219 0 .199219-.203124.199219-.601562.199219zm0 0"/><path d="m118.398438 35.398438c-2.796876 0-5-2.199219-5-5 0-.398438 0-.597657.203124-1 0-.398438.199219-.597657.398438-1 .199219-.398438.199219-.597657.398438-.796876.402343-.601562.800781-1 1.402343-1.402343.199219-.199219.597657-.398438.800781-.398438.199219-.199219.597657-.199219 1-.199219.597657-.203124 1.398438-.203124 2 0 .398438 0 .597657.199219 1 .199219.398438.199219.597657.199219.796876.398438.601562.402343 1 .800781 1.402343 1.402343.199219.199219.398438.597657.398438.796876.199219.402343.199219.601562.402343 1v1c0 1.402343-.601562 2.601562-1.402343 3.601562-1.199219.800781-2.398438 1.398438-3.800781 1.398438zm0 0"/><path d="m137 35.398438c-.398438 0-.601562 0-1 0s-.601562-.199219-1-.199219c-.398438-.199219-.601562-.199219-.800781-.398438s-.597657-.402343-.800781-.601562c-2-2-2-5.199219 0-7 .203124-.199219.402343-.398438.800781-.597657.199219-.203124.601562-.402343.800781-.402343.398438-.199219.601562-.199219 1-.199219.601562-.199219 1.398438-.199219 2 0 .398438 0 .601562.199219 1 .199219.398438.199219.601562.199219.800781.402343.199219.199219.597657.398438.800781.597657 1 1 1.398438 2.199219 1.398438 3.601562 0 .398438 0 .597657-.199219 1 0 .398438-.199219.597657-.402343 1-.199219.398438-.199219.597657-.398438.800781-.199219.199219-.398438.597657-.601562.796876-.199219.203124-.398438.402343-.796876.601562-.203124.199219-.601562.398438-.800781.398438-.199219.203124-.601562.203124-1 .203124-.199219-.203124-.402343-.203124-.800781-.203124zm0 0"/><path d="m341 35.398438h-159.199219c-2.800781 0-5-2.199219-5-5 0-2.796876 2.199219-5 5-5h159.199219c2.800781 0 5 2.203124 5 5 0 2.800781-2.398438 5-5 5zm0 0"/><path d="m117.601562 82h-18c-2.800781 0-5-2.199219-5-5s2.199219-5 5-5h18c2.796876 0 5 2.199219 5 5s-2.203124 5-5 5zm0 0"/><path d="m138.800781 310.398438h-32.800781c-2.800781 0-5-2.199219-5-5 0-2.796876 2.199219-5 5-5h32.800781c2.800781 0 5 2.203124 5 5 0 2.800781-2.199219 5-5 5zm0 0"/><path d="m171.601562 286.199219h-65.601562c-2.800781 0-5-2.199219-5-5s2.199219-5 5-5h65.800781c2.800781 0 5 2.199219 5 5s-2.402343 5-5.199219 5zm0 0"/><path d="m171.601562 261.800781h-65.601562c-2.800781 0-5-2.199219-5-5s2.199219-5 5-5h65.800781c2.800781 0 5 2.199219 5 5-.199219 2.800781-2.402343 5-5.199219 5zm0 0"/><path d="m233.601562 310.398438h-33c-2.800781 0-5-2.199219-5-5 0-2.796876 2.199219-5 5-5h32.796876c2.800781 0 5 2.203124 5 5 0 2.800781-2 5-4.796876 5zm0 0"/><path d="m266.398438 286.199219h-65.796876c-2.800781 0-5-2.199219-5-5s2.199219-5 5-5h65.796876c2.800781 0 5 2.199219 5 5s-2.199219 5-5 5zm0 0"/><path d="m266.398438 261.800781h-65.796876c-2.800781 0-5-2.199219-5-5s2.199219-5 5-5h65.796876c2.800781 0 5 2.199219 5 5s-2.199219 5-5 5zm0 0"/><path d="m328.398438 310.398438h-32.796876c-2.800781 0-5-2.199219-5-5 0-2.796876 2.199219-5 5-5h32.796876c2.800781 0 5 2.203124 5 5 0 2.800781-2.398438 5-5 5zm0 0"/><path d="m361.199219 286.199219h-65.800781c-2.796876 0-5-2.199219-5-5s2.203124-5 5-5h65.800781c2.800781 0 5 2.199219 5 5s-2.199219 5-5 5zm0 0"/><path d="m361.199219 261.800781h-65.800781c-2.796876 0-5-2.199219-5-5s2.203124-5 5-5h65.800781c2.800781 0 5 2.199219 5 5s-2.199219 5-5 5zm0 0"/><path d="m399.800781 371.800781h-330.402343c-2.796876 0-5-2.199219-5-5v-336.601562c0-16.597657 13.402343-30.199219 30-30.199219h280.203124c16.597657 0 30.199219 13.601562 30.199219 30.199219v336.601562c0 2.800781-2.199219 5-5 5zm-325.402343-10h320.601562v-331.601562c0-11.199219-9-20.199219-20.199219-20.199219h-280.402343c-11.199219 0-20.199219 9-20.199219 20.199219zm0 0"/><path d="m399.800781 60.800781h-330.402343c-2.796876 0-5-2.199219-5-5v-25.601562c0-16.597657 13.402343-30.199219 30-30.199219h280.203124c16.597657 0 30.199219 13.601562 30.199219 30.199219v25.601562c0 2.597657-2.199219 5-5 5zm-325.402343-10h320.601562v-20.601562c0-11.199219-9-20.199219-20.199219-20.199219h-280.402343c-11.199219 0-20.199219 9-20.199219 20.199219zm0 0"/><path d="m161.398438 234h-45.199219c-8.398438 0-15.199219-6.800781-15.199219-15.199219 0-8.402343 6.800781-15.199219 15.199219-15.199219h45.199219c8.402343 0 15.203124 6.796876 15.203124 15.199219 0 8.398438-6.800781 15.199219-15.203124 15.199219zm-45.199219-20.601562c-3 0-5.199219 2.402343-5.199219 5.203124 0 3 2.398438 5.199219 5.199219 5.199219h45.199219c3 0 5.203124-2.402343 5.203124-5.199219 0-2.800781-2.402343-5.203124-5.203124-5.203124zm0 0"/><path d="m256.199219 234h-45.199219c-8.398438 0-15.199219-6.800781-15.199219-15.199219 0-8.402343 6.800781-15.199219 15.199219-15.199219h45.199219c8.402343 0 15.199219 6.796876 15.199219 15.199219 0 8.398438-6.796876 15.199219-15.199219 15.199219zm-45.199219-20.601562c-3 0-5.199219 2.402343-5.199219 5.203124 0 2.796876 2.398438 5.199219 5.199219 5.199219h45.199219c3 0 5.199219-2.402343 5.199219-5.199219 0-3-2.398438-5.203124-5.199219-5.203124zm0 0"/><path d="m351 234h-45.199219c-8.402343 0-15.199219-6.800781-15.199219-15.199219 0-8.402343 6.796876-15.199219 15.199219-15.199219h45.199219c8.398438 0 15.199219 6.796876 15.199219 15.199219 0 8.398438-6.800781 15.199219-15.199219 15.199219zm-45.199219-20.601562c-3 0-5.199219 2.402343-5.199219 5.203124 0 3 2.398438 5.199219 5.199219 5.199219h45.199219c3 0 5.199219-2.402343 5.199219-5.199219 0-3-2.398438-5.203124-5.199219-5.203124zm0 0"/><path d="m399.800781 179h-330.402343c-2.796876 0-5-2.199219-5-5v-118c0-2.800781 2.203124-5 5-5h330.601562c2.800781 0 5 2.199219 5 5v118c-.199219 2.800781-2.398438 5-5.199219 5zm-325.402343-10h320.601562v-108h-320.601562zm0 0"/><path d="m399.800781 179h-202c-2.800781 0-5-2.199219-5-5 0-.199219 0-.601562 0-.800781 6.398438-41.597657 38.398438-69.398438 90-78.597657l.800781 5-.800781-5c26.398438-4.601562 42.597657-18.203124 48.398438-40 .601562-2.203124 2.601562-3.800781 4.800781-3.800781h63.800781c2.800781 0 5 2.199219 5 5v118c0 3-2.199219 5.199219-5 5.199219zm-195.800781-10h191v-108h-55c-5.601562 17.199219-19.800781 37.199219-55.199219 43.601562-44.601562 7.796876-73 30.597657-80.800781 64.398438zm0 0"/><path d="m441 432h-412.800781c-15.597657 0-28-12.601562-28.199219-28.199219v-37c0-2.800781 2.199219-5 5-5h459.199219c2.800781 0 5 2.199219 5 5v37c0 15.597657-12.597657 28.199219-28.199219 28.199219zm-431-60.199219v32c0 10 8.199219 18.199219 18.199219 18.199219h412.800781c10 0 18.199219-8.199219 18.199219-18.199219v-32zm0 0"/><path d="m69.398438 371.800781h-43.398438c-2.800781 0-5-2.199219-5-5v-274.402343c0-4 3.199219-7 7.199219-7.199219h41.199219c2.800781 0 5 2.199219 5 5v276.601562c0 2.800781-2.398438 5-5 5zm-38.398438-10h33.199219v-266.402343h-33.199219zm0 0"/><path d="m443.199219 371.800781h-43.199219c-2.800781 0-5-2.199219-5-5v-276.402343c0-2.796876 2.199219-5 5-5h41.199219c4 0 7 3.203124 7.199219 7.203124v274.398438c-.199219 2.601562-2.398438 4.800781-5.199219 4.800781zm-38.398438-10h33.199219v-266.402343h-33.199219zm36.199219-266.402343"/><path d="m69.398438 118h-43.398438c-2.800781 0-5-2.199219-5-5v-20.601562c0-4 3.199219-7 7.199219-7.199219h41.199219c2.800781 0 5 2.199219 5 5v22.601562c0 3-2.398438 5.199219-5 5.199219zm-38.398438-10h33.199219v-12.601562h-33.199219zm0 0"/><path d="m443.199219 118h-43.199219c-2.800781 0-5-2.199219-5-5v-22.601562c0-2.796876 2.199219-5 5-5h41.199219c4 0 7 3.203124 7.199219 7.203124v20.597657c-.199219 2.601562-2.398438 4.800781-5.199219 4.800781zm-38.398438-10h33.199219v-12.601562h-33.199219zm36.199219-12.601562"/></g></svg>