<svg height="480pt" viewBox="0 0 480 480.00083" width="480pt" xmlns="http://www.w3.org/2000/svg"><path d="m472 246.402344v83.199218c0 6.625-5.371094 12-12 12s-12-5.375-12-12v-83.199218c0-6.628906 5.371094-12 12-12s12 5.371094 12 12zm0 0" fill="#57565c"/><path d="m464 424-32 48h-392l-24-48h172l4-16h96l4 16zm0 0" fill="#57565c"/><path d="m448 329.601562v30.398438c0 17.675781-14.328125 32-32 32h-120l-8-32h-96l-8 32h-40v-24l37.359375-48h-21.359375v-24h-32l-16-16v-24h21.359375l-37.359375-48v-24h88l8 32h96l8-32h120c17.671875 0 32 14.328125 32 32zm-40-41.601562c0-8.835938-7.164062-16-16-16s-16 7.164062-16 16 7.164062 16 16 16c8.824219-.027344 15.972656-7.171875 16-16zm-32-40c0-8.835938-7.164062-16-16-16s-16 7.164062-16 16 7.164062 16 16 16c8.824219-.027344 15.972656-7.171875 16-16zm0 80c0-8.835938-7.164062-16-16-16s-16 7.164062-16 16 7.164062 16 16 16c8.824219-.027344 15.972656-7.171875 16-16zm-32-40c0-8.835938-7.164062-16-16-16s-16 7.164062-16 16 7.164062 16 16 16c8.824219-.027344 15.972656-7.171875 16-16zm-80 48v-32h-48v32zm0-64v-32h-48v32zm0 0" fill="#c6c5ca"/><path d="m448 24v192c0-17.671875-14.328125-32-32-32v-160c.066406-8.808594 7.191406-15.933594 16-16 8.824219.027344 15.972656 7.175781 16 16zm0 0" fill="#57565c"/><path d="m408 288c0 8.835938-7.164062 16-16 16s-16-7.164062-16-16 7.164062-16 16-16 16 7.164062 16 16zm0 0" fill="#00665a"/><path d="m376 248c0 8.835938-7.164062 16-16 16s-16-7.164062-16-16 7.164062-16 16-16 16 7.164062 16 16zm0 0" fill="#d80027"/><path d="m376 328c0 8.835938-7.164062 16-16 16s-16-7.164062-16-16 7.164062-16 16-16 16 7.164062 16 16zm0 0" fill="#006df0"/><g fill="#ffda44"><path d="m344 288c0 8.835938-7.164062 16-16 16s-16-7.164062-16-16 7.164062-16 16-16 16 7.164062 16 16zm0 0"/><path d="m216 304h48v32h-48zm0 0"/><path d="m216 240h48v32h-48zm0 0"/><path d="m256 128c0 8.835938-7.164062 16-16 16s-16-7.164062-16-16 7.164062-16 16-16 16 7.164062 16 16zm0 0"/></g><path d="m181.359375 320-37.359375 48-37.359375-48h21.359375v-24h32v24zm0 0" fill="#006df0"/><path d="m144 368v24h-80c-17.671875 0-32-14.324219-32-32v-144c0-17.671875 14.328125-32 32-32h32v24l-37.359375 48h21.359375v24h32l16 16v24h-21.359375zm0 0" fill="#c6c5ca"/><path d="m96 208 37.359375 48h-21.359375v24h-32v-24h-21.359375zm0 0" fill="#d80027"/><path d="m64 24v160c-17.671875 0-32 14.328125-32 32v-192c.027344-8.824219 7.175781-15.972656 16-16 8.808594.066406 15.933594 7.191406 16 16zm0 0" fill="#57565c"/><path d="m32 246.402344v83.199218c0 6.625-5.371094 12-12 12s-12-5.375-12-12v-83.199218c0-6.628906 5.371094-12 12-12s12 5.371094 12 12zm0 0" fill="#57565c"/><path d="m181.335938 312h-13.335938v-16c0-4.417969-3.582031-8-8-8h-32c-4.417969 0-8 3.582031-8 8v16h-13.335938c-3.054687 0-5.84375 1.742188-7.183593 4.488281-1.34375 2.742188-1.003907 6.011719.871093 8.425781l37.335938 48c1.515625 1.945313 3.847656 3.082032 6.3125 3.082032 2.46875 0 4.796875-1.136719 6.3125-3.082032l37.335938-48c1.875-2.414062 2.214843-5.683593.871093-8.425781-1.339843-2.746093-4.128906-4.488281-7.183593-4.488281zm-37.335938 42.96875-20.976562-26.96875h4.976562c4.417969 0 8-3.582031 8-8v-16h16v16c0 4.417969 3.582031 8 8 8h4.976562zm0 0"/><path d="m120 280v-16h13.335938c3.054687 0 5.84375-1.742188 7.183593-4.484375 1.34375-2.746094 1.003907-6.015625-.871093-8.425781l-37.335938-48c-1.574219-1.855469-3.882812-2.921875-6.3125-2.921875s-4.738281 1.066406-6.3125 2.921875l-37.335938 48c-1.875 2.410156-2.214843 5.679687-.871093 8.425781 1.339843 2.742187 4.128906 4.484375 7.183593 4.484375h13.335938v16c0 4.417969 3.582031 8 8 8h32c4.417969 0 8-3.582031 8-8zm-16-24v16h-16v-16c0-4.417969-3.582031-8-8-8h-4.976562l20.976562-26.96875 20.976562 26.96875h-4.976562c-4.417969 0-8 3.582031-8 8zm0 0"/><path d="m155.152344 51.152344c46.890625-46.785156 122.804687-46.785156 169.695312 0 3.125 3.125 8.195313 3.125 11.320313 0s3.125-8.195313 0-11.320313c-53.148438-53.023437-139.1875-53.023437-192.335938 0-3.125 3.125-3.125 8.195313 0 11.320313s8.195313 3.125 11.320313 0zm0 0"/><path d="m307.878906 76.121094c3.238282 0 6.152344-1.949219 7.390625-4.9375 1.238281-2.992188.554688-6.429688-1.734375-8.71875-40.636718-40.554688-106.433594-40.554688-147.070312 0-2.082032 2.007812-2.914063 4.984375-2.183594 7.78125.734375 2.796875 2.917969 4.980468 5.714844 5.710937 2.796875.734375 5.773437-.101562 7.78125-2.179687 34.386718-34.3125 90.058594-34.3125 124.445312 0 1.5 1.5 3.535156 2.34375 5.65625 2.34375zm0 0"/><path d="m285.257812 98.746094c3.234376-.003906 6.148438-1.949219 7.386719-4.941406 1.238281-2.988282.554688-6.429688-1.730469-8.714844-28.136718-28.078125-73.691406-28.078125-101.824218 0-3.035156 3.136718-2.988282 8.128906.097656 11.214844 3.085938 3.085937 8.074219 3.128906 11.214844.097656 21.882812-21.832032 57.3125-21.832032 79.199218 0 1.5 1.5 3.535157 2.34375 5.65625 2.34375zm0 0"/><path d="m216 128c0 13.253906 10.746094 24 24 24s24-10.746094 24-24-10.746094-24-24-24-24 10.746094-24 24zm32 0c0 4.417969-3.582031 8-8 8s-8-3.582031-8-8 3.582031-8 8-8 8 3.582031 8 8zm0 0"/><path d="m471.097656 229.785156c-4.441406-2.945312-9.878906-3.996094-15.097656-2.921875v-202.863281c0-13.253906-10.746094-24-24-24-6.332031-.0507812-12.414062 2.46875-16.855469 6.984375-4.601562 4.460937-7.183593 10.609375-7.144531 17.015625v152h-112c-3.671875 0-6.871094 2.503906-7.757812 6.066406l-6.488282 25.933594h-83.503906l-6.488281-25.933594c-.890625-3.5625-4.089844-6.066406-7.761719-6.066406h-112v-152c-.066406-13.226562-10.773438-23.9335938-24-24-13.253906 0-24 10.746094-24 24v202.863281c-5.875-1.21875-11.992188.273438-16.644531 4.0625-4.65625 3.789063-7.35937525 9.472657-7.355469 15.476563v83.199218c0 11.046876 8.953125 20 20 20 1.347656-.027343 2.6875-.191406 4-.488281v10.886719c.027344 22.082031 17.921875 39.972656 40 40h120c3.671875 0 6.871094-2.5 7.761719-6.0625l6.488281-25.9375h83.503906l6.488282 25.9375c.886718 3.5625 4.085937 6.0625 7.757812 6.0625h120c22.082031-.027344 39.972656-17.917969 40-40v-10.910156c5.871094 1.242187 11.992188-.234375 16.652344-4.015625 4.660156-3.785157 7.359375-9.472657 7.347656-15.472657v-83.199218c-.007812-6.679688-3.347656-12.914063-8.902344-16.617188zm-44.640625-211.488281c1.460938-1.484375 3.460938-2.316406 5.542969-2.296875 4.417969 0 8 3.582031 8 8v160.207031c-4.710938-3.636719-10.179688-6.164062-16-7.398437v-152.808594c-.003906-2.15625.886719-4.222656 2.457031-5.703125zm-378.457031-2.296875c2.160156-.003906 4.222656.886719 5.703125 2.457031 1.488281 1.460938 2.316406 3.460938 2.296875 5.542969v152.800781c-5.820312 1.234375-11.289062 3.761719-16 7.398438v-160.199219c0-4.417969 3.582031-8 8-8zm-26.113281 317.105469c-1.292969.722656-2.886719.644531-4.101563-.199219-1.109375-.738281-1.777344-1.976562-1.785156-3.304688v-83.199218c0-1.339844.671875-2.589844 1.785156-3.328125 1.226563-.816407 2.804688-.894531 4.101563-.199219 1.300781.699219 2.113281 2.050781 2.113281 3.527344v83.199218c.011719 1.472657-.804688 2.824219-2.113281 3.503907zm418.113281 26.894531c0 13.253906-10.746094 24-24 24h-113.75l-6.488281-25.933594c-.890625-3.5625-4.089844-6.066406-7.761719-6.066406h-96c-3.671875 0-6.871094 2.503906-7.757812 6.066406l-6.488282 25.933594h-113.753906c-13.253906 0-24-10.746094-24-24v-144c0-13.253906 10.746094-24 24-24h113.753906l6.488282 25.9375c.886718 3.5625 4.085937 6.0625 7.757812 6.0625h96c3.671875 0 6.871094-2.5 7.761719-6.0625l6.488281-25.9375h113.75c13.253906 0 24 10.746094 24 24zm24-30.398438c0 1.335938-.667969 2.585938-1.785156 3.328126-1.226563.816406-2.804688.890624-4.101563.195312-1.300781-.695312-2.113281-2.050781-2.113281-3.523438v-83.199218c-.019531-1.484375.796875-2.847656 2.113281-3.53125.59375-.3125 1.253907-.480469 1.925781-.484375.78125.003906 1.539063.242187 2.175782.6875 1.117187.738281 1.785156 1.988281 1.785156 3.328125zm0 0"/><path d="m416 360h16v16h-16zm0 0"/><path d="m392 360h16v16h-16zm0 0"/><path d="m416 336h16v16h-16zm0 0"/><path d="m360 272c13.253906 0 24-10.746094 24-24s-10.746094-24-24-24-24 10.746094-24 24 10.746094 24 24 24zm0-32c4.417969 0 8 3.582031 8 8s-3.582031 8-8 8-8-3.582031-8-8 3.582031-8 8-8zm0 0"/><path d="m360 304c-13.253906 0-24 10.746094-24 24s10.746094 24 24 24 24-10.746094 24-24-10.746094-24-24-24zm0 32c-4.417969 0-8-3.582031-8-8s3.582031-8 8-8 8 3.582031 8 8-3.582031 8-8 8zm0 0"/><path d="m392 264c-13.253906 0-24 10.746094-24 24s10.746094 24 24 24 24-10.746094 24-24-10.746094-24-24-24zm0 32c-4.417969 0-8-3.582031-8-8s3.582031-8 8-8 8 3.582031 8 8-3.582031 8-8 8zm0 0"/><path d="m352 288c0-13.253906-10.746094-24-24-24s-24 10.746094-24 24 10.746094 24 24 24 24-10.746094 24-24zm-24 8c-4.417969 0-8-3.582031-8-8s3.582031-8 8-8 8 3.582031 8 8-3.582031 8-8 8zm0 0"/><path d="m264 232h-48c-4.417969 0-8 3.582031-8 8v32c0 4.417969 3.582031 8 8 8h48c4.417969 0 8-3.582031 8-8v-32c0-4.417969-3.582031-8-8-8zm-8 32h-32v-16h32zm0 0"/><path d="m264 296h-48c-4.417969 0-8 3.582031-8 8v32c0 4.417969 3.582031 8 8 8h48c4.417969 0 8-3.582031 8-8v-32c0-4.417969-3.582031-8-8-8zm-8 32h-32v-16h32zm0 0"/><path d="m464 416h-165.75l-2.488281-9.933594c-.890625-3.5625-4.089844-6.066406-7.761719-6.066406h-96c-3.671875 0-6.871094 2.503906-7.757812 6.066406l-2.488282 9.933594h-165.753906c-2.773438 0-5.347656 1.433594-6.808594 3.792969-1.457031 2.359375-1.589844 5.304687-.351562 7.785156l24 48c1.355468 2.710937 4.128906 4.425781 7.160156 4.421875h392c2.675781 0 5.171875-1.335938 6.65625-3.558594l32-48c1.636719-2.457031 1.792969-5.613281.398438-8.214844-1.390626-2.601562-4.101563-4.226562-7.054688-4.226562zm-36.28125 48h-382.773438l-16-32h159.054688c3.671875 0 6.871094-2.5 7.761719-6.0625l2.488281-9.9375h83.503906l2.488282 9.9375c.886718 3.5625 4.085937 6.0625 7.757812 6.0625h157.054688zm0 0"/></svg>